<svg xmlns:xlink="http://www.w3.org/1999/xlink" xmlns="http://www.w3.org/2000/svg" class="logo" viewBox="0 0 295 48" aria-label="Dealrock" width="295"  height="48" ><path d="m21.528 4.248h-20.992v.896c3.904.64 5.44 1.728 5.44 3.904v33.152c0 2.176-1.536 3.264-5.44 3.904v.896h21.824c12.608 0 24.448-8.64 24.448-22.784 0-9.92-7.168-19.968-25.28-19.968zm.832 40.96c-3.264 0-4.096-.96-4.096-2.624v-36.544h2.176c8.128 0 13.696 10.112 13.696 19.584 0 12.032-4.992 19.584-11.776 19.584zm50.966-5.312c-6.784 0-11.584-4.032-11.392-12.416h20.736c-.064-8.768-4.288-14.208-14.72-14.208-10.56 0-17.344 7.168-17.344 18.048 0 8.256 5.504 16.576 17.024 16.576 9.408 0 14.08-5.952 15.04-12.48l-.768-.256c-1.728 2.88-4.992 4.736-8.576 4.736zm-6.464-24.832c3.264 0 4.224 6.656 4.352 10.624h-9.216c.32-5.248 1.472-10.624 4.864-10.624zm57.445 27.584c-2.113-.448-3.648-1.472-3.648-3.648v-25.792h-.896l-8.64 3.328c-2.048-2.112-4.992-3.328-8.768-3.328-9.2165 0-15.9365 7.232-15.9365 18.496 0 8.448 4.544 16.256 14.0165 16.256 3.392 0 6.976-2.176 8.448-6.144l.512 6.144h.896l14.656-4.288v-.896zm-19.392-.64c-4.416 0-6.2085-6.016-6.2085-12.672 0-7.552 2.4325-13.184 5.4405-13.184 3.328 0 4.608 2.304 4.608 8v15.552c-.448 1.408-1.984 2.304-3.84 2.304zm37.487 0v-41.088002h-.896l-15.296 4.288002v.896l.64.128c2.368.448 3.648 1.728 3.648 3.648v32.128c0 2.432-.256 3.328-2.752 4.096v.896h17.408v-.896c-2.496-.768-2.752-1.664-2.752-4.096zm31.434-28.8c-4.736 0-8.384 4.288-10.304 10.432v-10.432h-.897l-15.295 4.288v.896l.64.128c2.368.448 3.648 1.728 3.648 3.648v19.904c0 2.432-.384 3.264-3.712 4.032v.896h20.608v-.896c-4.608-.768-4.992-1.6-4.992-4.032v-16.128c1.408-2.112 4.48-3.264 7.36-3.264 1.984 0 3.84.448 5.12 1.6l.704-10.496c-1.024-.448-2.048-.576-2.88-.576zm22.811 34.752c10.688 0 18.112-7.36 18.112-18.048 0-9.856-7.232-16.704-17.728-16.704-10.688 0-18.112 7.424-18.112 18.112 0 9.856 7.232 16.64 17.728 16.64zm1.408-1.792c-3.392 0-6.976-7.104-6.976-19.328 0-6.912 1.344-11.84 4.608-11.84 3.456 0 6.912 7.36 6.912 19.392 0 7.104-1.344 11.776-4.544 11.776zm37.322 1.728c8.512 0 14.272-5.12 15.168-12.48l-.768-.256c-1.856 3.264-5.888 4.736-8.768 4.736-6.528 0-11.2-4.16-11.2-13.44 0-5.952 1.984-11.392 5.056-11.392 3.008 0 4.544 4.288 5.056 9.408l9.856-2.56c-.576-3.2-4.736-8.64-14.08-8.64-11.712 0-17.216 8.384-17.216 16.96 0 9.536 5.76 17.664 16.896 17.664zm53.633-5.44-9.536-20.032 2.432-2.112c5.44-4.672 6.912-5.248 10.304-5.248v-.896h-13.12v.896c4.16 0 4.736 1.216 1.728 3.776l-12.416 10.752v-28.672002h-.896l-15.296 4.288002v.896l.64.128c2.368.448 3.648 1.728 3.648 3.648v32.128c0 2.432-.256 3.328-2.752 4.096v.896h17.408v-.896c-2.496-.768-2.752-1.664-2.752-4.096v-10.048l2.112-1.792 5.632 12.608c.64 1.408 1.216 2.816 1.216 4.224h17.024v-.896c-3.904-.512-4.672-2.112-5.376-3.648z" fill="#002C30"></path></svg>